<svg xmlns="http://www.w3.org/2000/svg" xmlns:xlink="http://www.w3.org/1999/xlink" width="500" zoomAndPan="magnify" viewBox="0 0 375 374.999991" height="500" preserveAspectRatio="xMidYMid meet" version="1.0"><defs><clipPath id="d88e0c2649"><path d="M 15.070312 0 L 360.070312 0 L 360.070312 375 L 15.070312 375 Z M 15.070312 0 " clip-rule="nonzero"/></clipPath></defs><g clip-path="url(#d88e0c2649)"><path fill="#5e17eb" d="M 304.574219 67.082031 L 258.125 163.339844 C 255.332031 169.132812 249.90625 173.210938 243.566406 174.285156 C 237.226562 175.359375 230.753906 173.300781 226.207031 168.753906 L 186.425781 129 C 176.820312 119.398438 161.183594 119.398438 151.578125 129 C 141.96875 138.597656 141.972656 154.21875 151.578125 163.824219 L 211.617188 223.816406 C 219.367188 231.5625 219.367188 244.125 211.617188 251.875 C 203.863281 259.621094 191.292969 259.621094 183.539062 251.875 L 123.503906 191.878906 C 98.414062 166.804688 98.414062 126.011719 123.503906 100.945312 C 148.589844 75.875 189.414062 75.875 214.5 100.945312 L 234.507812 120.941406 L 301.652344 -14.953125 L 261.261719 37.84375 C 238.914062 27.273438 213.929688 21.355469 187.5625 21.355469 C 92.289062 21.355469 15.054688 98.535156 15.054688 193.742188 C 15.054688 240.761719 33.894531 283.382812 64.4375 314.480469 L 109.296875 221.53125 C 112.089844 215.746094 117.515625 211.664062 123.859375 210.589844 C 130.195312 209.515625 136.667969 211.578125 141.214844 216.121094 L 180.996094 255.875 C 190.605469 265.476562 206.238281 265.476562 215.84375 255.875 C 225.453125 246.273438 225.453125 230.652344 215.84375 221.054688 L 155.808594 161.058594 C 148.054688 153.308594 148.054688 140.75 155.808594 133.003906 C 163.558594 125.257812 176.128906 125.257812 183.882812 133.003906 L 243.914062 192.996094 C 269.003906 218.066406 269.003906 258.859375 243.914062 283.929688 C 218.832031 309 178.011719 309 152.921875 283.929688 L 132.910156 263.933594 L 71.101562 389.8125 L 106.441406 345.914062 C 130.621094 358.816406 158.238281 366.128906 187.5625 366.128906 C 282.835938 366.128906 360.070312 288.949219 360.070312 193.742188 C 360.070312 143.664062 338.699219 98.578125 304.574219 67.082031 " fill-opacity="1" fill-rule="nonzero"/></g></svg>